<?xml version="1.0" standalone="no"?>
<!DOCTYPE svg PUBLIC "-//W3C//DTD SVG 20010904//EN"
 "http://www.w3.org/TR/2001/REC-SVG-20010904/DTD/svg10.dtd">
<svg version="1.0" xmlns="http://www.w3.org/2000/svg"
 width="512.000000pt" height="512.000000pt" viewBox="0 0 512.000000 512.000000"
 preserveAspectRatio="xMidYMid meet">

<g transform="translate(0.000000,512.000000) scale(0.100000,-0.100000)"
fill="#000000" stroke="none">
<path d="M3610 5102 c-128 -34 -239 -124 -298 -244 -32 -65 -34 -67 -89 -83
-144 -42 -257 -136 -323 -268 -22 -44 -40 -88 -40 -98 0 -10 -5 -21 -10 -24
-6 -4 -322 77 -704 179 -381 102 -700 186 -709 186 -31 0 -65 -23 -81 -54 -24
-47 -906 -3351 -906 -3394 0 -71 18 -80 365 -172 171 -46 318 -85 327 -88 16
-4 18 -40 20 -494 l3 -490 33 -29 32 -29 1656 0 1656 0 34 34 34 34 0 1744 0
1743 30 110 c36 134 38 175 8 210 -20 22 -74 39 -398 126 -206 55 -380 101
-386 104 -8 2 -9 16 -2 47 10 40 14 45 77 75 162 77 261 238 261 424 0 309
-289 530 -590 451z m249 -221 c88 -45 150 -162 138 -262 -8 -64 -36 -117 -90
-166 -169 -156 -437 -35 -437 197 0 133 90 240 219 259 56 8 118 -2 170 -28z
m-587 -354 c30 -143 162 -282 313 -330 l74 -23 -29 -50 c-71 -126 -209 -185
-344 -149 -235 62 -315 344 -148 518 38 40 99 78 117 73 5 -1 13 -19 17 -39z
m-1082 -182 c344 -91 635 -170 648 -175 12 -5 22 -18 22 -27 0 -10 15 -50 34
-88 l33 -70 -63 -67 c-55 -57 -64 -71 -64 -103 0 -47 13 -71 52 -91 49 -25 85
-12 155 58 l62 62 54 -28 c30 -15 79 -34 108 -41 63 -17 185 -19 249 -4 70 16
163 65 217 113 l49 45 348 -94 c192 -52 350 -96 352 -98 4 -4 -664 -2509 -671
-2516 -2 -2 -123 29 -269 68 -145 39 -277 71 -293 71 -31 0 -65 -24 -81 -55
-5 -11 -40 -135 -77 -275 -38 -140 -71 -258 -75 -263 -3 -4 -400 98 -881 227
-481 129 -995 267 -1144 306 -148 40 -273 75 -277 79 -4 4 179 704 408 1556
228 853 417 1560 420 1572 5 18 10 20 32 13 15 -5 308 -84 652 -175z m2220
-2855 l0 -1290 -1525 0 -1525 0 0 390 c0 215 3 390 6 390 3 0 384 -101 846
-225 680 -182 847 -224 868 -217 41 15 812 462 837 486 18 17 68 193 255 889
128 477 234 867 235 867 2 0 3 -580 3 -1290z m-865 -421 c28 -8 35 -13 25 -19
-8 -5 -89 -51 -179 -104 -91 -52 -167 -94 -169 -91 -2 2 12 67 33 143 l37 140
107 -29 c58 -16 124 -34 146 -40z"/>
<path d="M1639 3401 c-22 -22 -29 -39 -29 -68 0 -51 20 -78 72 -97 24 -8 399
-110 833 -226 435 -116 873 -234 974 -261 202 -55 235 -57 271 -12 28 35 27
94 -3 128 -20 24 -120 53 -1027 296 -553 148 -1018 269 -1033 269 -18 0 -39
-11 -58 -29z"/>
<path d="M1546 3019 c-37 -29 -49 -64 -36 -104 6 -18 18 -40 28 -48 26 -23
2031 -559 2064 -551 15 3 39 20 54 37 22 26 25 38 21 71 -4 26 -15 49 -29 61
-17 14 -319 99 -1023 288 -550 147 -1012 267 -1026 267 -15 0 -38 -10 -53 -21z"/>
<path d="M1429 2621 c-39 -40 -40 -89 -1 -130 24 -27 56 -38 311 -106 157 -41
301 -75 322 -75 29 0 43 7 63 31 41 48 35 108 -15 146 -22 18 -571 163 -614
163 -27 0 -44 -8 -66 -29z"/>
<path d="M2438 2374 c-35 -18 -48 -43 -48 -89 0 -97 133 -130 183 -45 26 44
21 78 -17 116 -38 38 -73 43 -118 18z"/>
</g>
</svg>
